<svg id="svg" version="1.1" xmlns="http://www.w3.org/2000/svg" xmlns:xlink="http://www.w3.org/1999/xlink" width="400" height="268.1318681318681" viewBox="0, 0, 400,268.1318681318681"><g id="svgg"><path id="path0" d="M0.000 0.936 L 0.000 1.872 198.726 1.867 L 397.451 1.862 398.019 2.514 C 398.516 3.085,398.559 3.341,398.369 4.600 C 398.249 5.390,398.194 25.171,398.245 48.558 C 398.296 71.945,398.323 91.563,398.304 92.153 C 398.278 92.955,398.273 167.205,398.298 179.074 C 398.300 180.107,398.291 200.027,398.279 223.340 C 398.255 267.748,398.268 268.276,399.346 268.276 L 400.000 268.276 400.000 134.138 L 400.000 0.000 200.000 0.000 L 0.000 0.000 0.000 0.936 " stroke="none" fill="#f5f5f5" fill-rule="evenodd"></path><path id="path1" d="M2.730 4.913 L 2.146 5.534 2.146 135.296 C 2.146 264.699,2.148 265.058,2.683 265.594 C 3.492 266.402,394.532 266.448,395.264 265.640 C 396.031 264.792,395.939 5.597,395.171 4.829 C 394.635 4.293,394.277 4.292,198.974 4.292 L 3.313 4.292 2.730 4.913 " stroke="none" fill="#3c8cd4" fill-rule="evenodd"></path><path id="path2" d="M-0.000 135.614 L 0.000 268.276 198.592 268.276 L 397.183 268.276 397.118 135.681 L 397.052 3.085 198.526 3.018 L -0.000 2.951 -0.000 135.614 M395.171 4.829 C 395.939 5.597,396.031 264.792,395.264 265.640 C 394.532 266.448,3.492 266.402,2.683 265.594 C 2.148 265.058,2.146 264.699,2.146 135.296 L 2.146 5.534 2.730 4.913 L 3.313 4.292 198.974 4.292 C 394.277 4.292,394.635 4.293,395.171 4.829 " stroke="none" fill="#2c6ca4" fill-rule="evenodd"></path><path id="path3" d="M22.267 2.683 C 9.946 2.757,89.234 2.877,198.461 2.951 L 397.056 3.085 397.073 134.541 C 397.082 206.841,397.186 266.539,397.304 267.203 C 397.422 267.867,397.533 208.757,397.552 135.848 C 397.580 24.387,397.527 3.237,397.221 2.982 C 396.839 2.665,68.939 2.403,22.267 2.683 " stroke="none" fill="#6878d0" fill-rule="evenodd"></path><path id="path4" d="M22.066 1.812 C 2.744 1.873,0.000 1.931,0.000 2.280 C 0.000 2.633,22.966 2.679,198.427 2.679 C 345.592 2.679,396.949 2.757,397.220 2.982 C 397.528 3.237,397.586 24.290,397.586 135.781 L 397.586 268.276 398.124 268.276 C 398.625 268.276,398.649 268.167,398.460 266.734 C 398.348 265.885,398.267 246.237,398.280 223.072 C 398.292 199.906,398.301 180.107,398.298 179.074 C 398.273 168.711,398.278 92.965,398.304 92.153 C 398.323 91.563,398.296 71.945,398.245 48.558 C 398.194 25.171,398.249 5.390,398.369 4.600 C 398.559 3.341,398.516 3.085,398.019 2.514 L 397.451 1.864 220.791 1.804 C 123.628 1.771,34.202 1.775,22.066 1.812 " stroke="none" fill="#70c4d0" fill-rule="evenodd"></path></g></svg>