<svg id="svg" version="1.1" xmlns="http://www.w3.org/2000/svg" xmlns:xlink="http://www.w3.org/1999/xlink" width="400" height="430.5882352941176" viewBox="0, 0, 400,430.5882352941176"><g id="svgg"><path id="path0" d="M0.000 215.200 L 0.000 430.400 200.000 430.400 L 400.000 430.400 400.000 215.200 L 400.000 0.000 200.000 0.000 L 0.000 0.000 0.000 215.200 M211.079 25.584 C 213.947 25.821,215.907 26.182,216.527 26.589 C 217.059 26.938,218.913 27.385,220.647 27.584 C 224.112 27.981,225.079 28.247,226.042 29.071 C 226.396 29.373,227.774 29.812,229.106 30.046 C 230.438 30.281,231.867 30.790,232.283 31.177 C 232.699 31.565,233.999 32.112,235.172 32.393 C 236.345 32.675,237.601 33.201,237.962 33.562 C 238.324 33.924,239.390 34.450,240.333 34.733 C 241.275 35.015,242.396 35.596,242.823 36.023 C 243.250 36.450,243.831 36.800,244.113 36.800 C 244.717 36.800,248.638 39.175,249.817 40.255 C 250.267 40.667,251.405 41.351,252.346 41.776 C 253.288 42.200,254.270 42.846,254.529 43.210 C 254.788 43.575,255.361 44.065,255.803 44.299 C 259.149 46.072,271.988 59.632,273.915 63.427 C 274.370 64.321,275.025 65.289,275.371 65.576 C 275.717 65.863,276.000 66.318,276.000 66.587 C 276.000 66.856,276.343 67.387,276.763 67.767 C 277.183 68.146,277.903 69.334,278.364 70.406 C 278.825 71.478,279.368 72.457,279.570 72.581 C 279.772 72.706,280.255 73.661,280.643 74.704 C 281.032 75.747,281.663 77.013,282.047 77.519 C 282.431 78.024,282.857 79.014,282.995 79.719 C 283.133 80.423,283.691 81.915,284.237 83.034 C 284.783 84.153,285.336 85.773,285.466 86.634 C 285.597 87.495,286.061 88.795,286.499 89.523 C 286.978 90.321,287.436 92.119,287.652 94.050 C 287.872 96.010,288.358 97.902,288.905 98.926 C 290.286 101.509,290.305 130.056,288.928 132.629 C 288.448 133.526,287.938 135.416,287.794 136.829 C 287.497 139.751,286.894 142.000,286.409 142.000 C 286.228 142.000,285.783 143.338,285.419 144.973 C 285.055 146.608,284.430 148.363,284.030 148.873 C 283.630 149.383,283.174 150.560,283.018 151.488 C 282.862 152.417,282.421 153.587,282.038 154.088 C 281.656 154.590,280.930 156.035,280.425 157.300 C 279.920 158.565,279.368 159.600,279.197 159.600 C 279.026 159.600,278.766 160.081,278.618 160.670 C 278.471 161.258,277.849 162.473,277.236 163.370 C 276.623 164.266,275.823 165.450,275.457 166.000 C 275.091 166.550,274.337 167.681,273.782 168.514 C 273.227 169.346,272.502 170.336,272.170 170.714 C 268.967 174.361,264.413 179.857,264.407 180.083 C 264.403 180.238,277.405 180.418,293.300 180.483 L 322.200 180.600 323.912 181.500 C 324.854 181.995,325.998 182.400,326.455 182.400 C 327.806 182.400,332.151 183.625,332.800 184.189 C 333.130 184.476,334.030 184.837,334.800 184.991 C 336.727 185.377,342.808 188.371,343.793 189.418 C 344.237 189.890,345.050 190.386,345.600 190.521 C 346.150 190.656,346.960 191.041,347.400 191.377 C 347.840 191.712,349.298 192.794,350.639 193.781 C 352.611 195.233,356.003 198.170,357.699 199.896 C 360.146 202.386,362.800 205.341,362.800 205.576 C 362.800 205.742,363.385 206.526,364.100 207.319 C 366.421 209.893,367.600 211.498,367.600 212.085 C 367.600 212.402,368.045 213.078,368.588 213.589 C 369.132 214.100,369.783 215.142,370.035 215.905 C 370.287 216.668,370.821 217.621,371.223 218.023 C 371.625 218.425,372.174 219.529,372.443 220.477 C 372.711 221.425,373.151 222.385,373.420 222.611 C 373.689 222.836,374.231 224.186,374.624 225.611 C 375.018 227.035,375.583 228.579,375.879 229.043 C 376.175 229.507,376.670 231.320,376.978 233.073 C 377.286 234.826,377.867 237.237,378.269 238.430 C 378.962 240.487,379.000 243.289,379.000 292.400 L 379.000 344.200 378.113 347.000 C 377.625 348.540,377.105 350.790,376.958 352.000 C 376.811 353.210,376.354 354.870,375.943 355.688 C 375.532 356.506,374.930 358.199,374.604 359.450 C 374.278 360.701,373.753 362.011,373.437 362.362 C 373.121 362.713,372.735 363.540,372.579 364.200 C 372.423 364.860,371.894 365.940,371.405 366.600 C 370.916 367.260,370.381 368.250,370.217 368.800 C 370.053 369.350,369.423 370.433,368.816 371.206 C 368.210 371.979,367.586 373.014,367.430 373.506 C 367.274 373.998,366.798 374.587,366.373 374.814 C 365.948 375.042,365.600 375.470,365.600 375.765 C 365.600 376.060,365.303 376.549,364.939 376.851 C 364.576 377.152,363.608 378.299,362.788 379.400 C 360.770 382.109,357.468 385.448,354.803 387.475 C 353.591 388.397,352.060 389.620,351.400 390.193 C 350.740 390.766,349.676 391.680,349.036 392.223 C 348.395 392.766,347.165 393.324,346.301 393.462 C 345.194 393.639,344.607 393.985,344.310 394.637 C 344.079 395.145,343.375 395.740,342.745 395.959 C 342.115 396.179,341.600 396.514,341.600 396.705 C 341.600 397.103,339.035 398.400,338.248 398.400 C 337.959 398.400,337.312 398.756,336.810 399.192 C 336.308 399.627,335.245 400.095,334.449 400.232 C 333.652 400.368,332.010 400.976,330.800 401.583 C 329.452 402.259,327.603 402.786,326.028 402.945 C 324.613 403.087,323.033 403.479,322.518 403.817 C 320.444 405.176,315.673 405.225,197.200 405.112 L 79.400 405.000 77.518 404.073 C 76.483 403.563,74.593 403.047,73.318 402.926 C 71.976 402.799,70.242 402.293,69.200 401.724 C 68.210 401.185,66.516 400.575,65.436 400.370 C 64.242 400.143,63.254 399.684,62.914 399.198 C 62.606 398.759,61.993 398.400,61.551 398.400 C 60.614 398.400,59.331 397.788,58.200 396.803 C 57.760 396.419,56.890 395.984,56.266 395.836 C 55.642 395.689,54.742 395.159,54.266 394.660 C 53.790 394.160,52.815 393.516,52.100 393.227 C 51.385 392.939,50.800 392.590,50.799 392.451 C 50.799 392.313,49.989 391.688,48.999 391.063 C 48.010 390.438,47.200 389.793,47.200 389.631 C 47.200 389.468,46.705 389.080,46.100 388.769 C 44.860 388.130,37.200 380.610,37.200 380.031 C 37.200 379.826,36.899 379.357,36.532 378.989 C 35.149 377.606,32.400 373.839,32.400 373.327 C 32.400 373.034,31.959 372.411,31.420 371.942 C 30.881 371.474,30.324 370.567,30.184 369.927 C 30.043 369.287,29.494 368.296,28.964 367.723 C 28.433 367.151,27.802 365.944,27.561 365.041 C 27.320 364.139,26.805 363.102,26.418 362.738 C 26.031 362.373,25.593 361.316,25.444 360.387 C 25.296 359.458,24.747 357.956,24.225 357.049 C 23.659 356.066,23.160 354.358,22.989 352.819 C 22.832 351.399,22.355 349.572,21.931 348.757 C 20.664 346.327,20.429 337.499,20.429 292.400 C 20.429 247.194,20.658 238.630,21.933 236.131 C 22.363 235.288,22.845 233.381,23.005 231.893 C 23.178 230.272,23.583 228.821,24.014 228.273 C 24.410 227.770,25.000 226.340,25.324 225.096 C 25.649 223.852,26.294 222.352,26.758 221.763 C 27.221 221.174,27.600 220.382,27.600 220.002 C 27.600 219.622,28.075 218.612,28.656 217.756 C 29.236 216.901,29.880 215.718,30.085 215.127 C 30.291 214.536,30.871 213.783,31.375 213.453 C 31.878 213.124,32.391 212.345,32.516 211.722 C 32.739 210.603,33.367 209.711,35.900 206.913 C 36.615 206.123,37.200 205.295,37.200 205.072 C 37.200 204.849,37.695 204.135,38.300 203.485 C 40.764 200.838,45.184 196.538,46.406 195.600 C 47.122 195.050,48.269 194.140,48.954 193.579 C 50.023 192.703,51.656 191.622,55.404 189.309 C 57.259 188.163,63.495 185.216,64.600 184.962 C 65.260 184.811,66.440 184.366,67.222 183.975 C 68.003 183.584,69.803 183.042,71.222 182.771 C 72.640 182.501,74.610 181.901,75.600 181.440 C 77.369 180.615,77.906 180.598,106.500 180.483 C 122.505 180.418,135.600 180.290,135.600 180.197 C 135.600 180.019,135.306 179.683,131.675 175.711 C 127.767 171.435,124.400 167.151,124.400 166.455 C 124.400 166.269,123.995 165.666,123.500 165.115 C 121.915 163.352,116.800 154.063,116.800 152.948 C 116.800 152.672,116.449 151.850,116.020 151.123 C 115.591 150.395,114.977 148.810,114.655 147.600 C 114.333 146.390,113.792 144.858,113.454 144.197 C 113.115 143.535,112.565 141.427,112.231 139.512 C 111.897 137.597,111.338 135.349,110.989 134.515 C 109.431 130.796,109.079 103.311,110.529 98.600 C 111.223 96.343,111.632 94.792,112.742 90.200 C 113.574 86.757,115.233 81.743,116.183 79.800 C 116.506 79.140,117.138 77.790,117.586 76.800 C 118.035 75.810,119.010 73.920,119.752 72.600 C 120.495 71.280,121.517 69.433,122.024 68.496 C 122.531 67.559,123.273 66.496,123.673 66.134 C 124.073 65.772,124.400 65.279,124.400 65.038 C 124.401 64.797,124.851 64.077,125.400 63.438 C 125.950 62.799,126.400 62.127,126.400 61.945 C 126.400 61.763,126.844 61.116,127.387 60.507 C 127.931 59.898,129.146 58.512,130.087 57.427 C 134.124 52.777,143.414 44.000,144.299 44.000 C 144.524 44.000,145.003 43.550,145.363 43.000 C 145.724 42.450,146.258 42.000,146.552 42.000 C 146.845 42.000,147.910 41.370,148.918 40.600 C 149.927 39.830,150.915 39.200,151.114 39.200 C 151.313 39.200,151.796 38.847,152.186 38.415 C 152.577 37.983,153.550 37.417,154.348 37.157 C 155.147 36.897,156.289 36.277,156.886 35.780 C 157.483 35.282,158.698 34.752,159.586 34.602 C 160.473 34.452,161.338 34.082,161.507 33.780 C 161.815 33.229,164.815 32.000,165.850 32.000 C 166.153 32.000,166.737 31.663,167.148 31.252 C 167.572 30.828,168.984 30.312,170.406 30.062 C 171.786 29.819,173.204 29.373,173.558 29.071 C 174.556 28.217,175.558 27.937,178.868 27.586 C 180.555 27.407,182.395 26.960,182.957 26.591 C 184.815 25.374,201.376 24.781,211.079 25.584 " stroke="none" fill="#fbfbfb" fill-rule="evenodd"></path><path id="path1" d="M192.600 26.774 C 190.620 26.936,188.190 27.355,187.200 27.705 C 186.210 28.055,183.555 28.522,181.300 28.743 C 178.664 29.000,176.987 29.356,176.606 29.737 C 176.037 30.306,172.755 31.200,171.234 31.200 C 170.835 31.200,170.023 31.582,169.430 32.048 C 168.837 32.514,167.598 33.063,166.676 33.268 C 165.754 33.472,164.370 34.052,163.600 34.557 C 162.830 35.062,161.528 35.696,160.706 35.967 C 159.884 36.237,159.115 36.614,158.998 36.803 C 158.881 36.993,157.843 37.610,156.692 38.173 C 155.542 38.737,153.790 39.739,152.800 40.401 C 151.810 41.062,150.487 41.917,149.860 42.302 C 148.782 42.962,145.438 45.493,143.916 46.800 C 143.532 47.130,142.562 47.940,141.760 48.600 C 139.536 50.430,134.438 55.544,132.200 58.192 C 131.100 59.492,129.732 61.019,129.159 61.583 C 128.587 62.148,127.822 63.183,127.460 63.884 C 126.679 65.394,124.431 68.792,123.747 69.496 C 123.481 69.769,123.047 70.669,122.782 71.496 C 122.516 72.323,122.070 73.270,121.790 73.600 C 121.093 74.421,117.600 81.827,117.600 82.483 C 117.600 82.774,117.242 83.681,116.803 84.498 C 116.365 85.315,115.817 86.843,115.585 87.892 C 115.353 88.941,114.743 90.880,114.230 92.200 C 113.717 93.520,113.180 95.941,113.038 97.579 C 112.896 99.218,112.498 101.108,112.154 101.779 C 110.560 104.888,110.554 126.620,112.146 129.800 C 112.477 130.460,112.917 132.562,113.124 134.471 C 113.342 136.478,113.857 138.677,114.344 139.685 C 114.808 140.644,115.373 142.401,115.598 143.591 C 115.824 144.780,116.249 146.124,116.542 146.577 C 116.836 147.029,117.475 148.601,117.961 150.070 C 118.447 151.538,119.093 152.946,119.397 153.197 C 119.700 153.449,120.063 154.177,120.203 154.814 C 120.343 155.452,120.920 156.654,121.484 157.486 C 122.049 158.318,122.691 159.539,122.911 160.200 C 123.131 160.860,123.619 161.760,123.995 162.200 C 125.112 163.505,127.600 167.448,127.600 167.912 C 127.600 168.149,128.006 168.670,128.502 169.071 C 128.998 169.472,129.704 170.250,130.072 170.800 C 130.439 171.350,131.195 172.340,131.753 173.000 C 132.310 173.660,133.269 174.814,133.883 175.564 C 134.497 176.315,135.495 177.446,136.100 178.078 C 139.128 181.242,139.428 181.199,114.067 181.206 C 89.763 181.213,81.929 181.558,79.173 182.743 C 78.198 183.162,76.147 183.626,74.615 183.773 C 72.875 183.940,71.320 184.355,70.471 184.880 C 69.723 185.342,68.277 185.874,67.256 186.063 C 66.235 186.252,64.950 186.737,64.400 187.140 C 63.850 187.544,62.703 188.103,61.850 188.384 C 60.452 188.845,57.818 190.276,55.247 191.972 C 54.723 192.317,53.935 192.808,53.497 193.062 C 53.058 193.316,52.227 193.907,51.650 194.376 C 50.609 195.220,47.627 197.430,46.489 198.200 C 45.406 198.933,38.400 205.929,38.400 206.278 C 38.400 206.467,37.905 207.187,37.300 207.878 C 34.764 210.775,33.537 212.463,33.141 213.596 C 32.911 214.258,32.557 214.800,32.356 214.800 C 32.155 214.800,31.562 215.767,31.040 216.949 C 30.517 218.131,29.894 219.218,29.656 219.366 C 29.417 219.513,29.023 220.372,28.780 221.275 C 28.537 222.178,28.009 223.385,27.606 223.958 C 27.204 224.531,26.656 225.990,26.389 227.200 C 26.121 228.410,25.586 229.940,25.199 230.600 C 24.805 231.272,24.376 233.121,24.224 234.800 C 24.075 236.450,23.558 239.060,23.076 240.600 L 22.200 243.400 22.200 292.200 L 22.200 341.000 23.075 344.200 C 23.556 345.960,24.071 348.660,24.220 350.200 C 24.369 351.740,24.812 353.540,25.205 354.200 C 25.598 354.860,26.128 356.424,26.383 357.676 C 26.638 358.927,27.179 360.374,27.585 360.890 C 27.991 361.406,28.516 362.547,28.753 363.425 C 28.989 364.303,29.637 365.636,30.191 366.388 C 30.746 367.140,31.200 367.978,31.200 368.249 C 31.200 368.521,31.447 368.990,31.748 369.291 C 32.050 369.592,32.617 370.460,33.009 371.220 C 33.401 371.979,34.640 373.703,35.761 375.051 C 36.882 376.398,38.340 378.175,39.000 378.999 C 40.003 380.251,44.917 385.201,46.545 386.600 C 49.483 389.124,53.426 392.099,54.684 392.741 C 55.547 393.181,56.489 393.825,56.776 394.171 C 57.063 394.517,57.522 394.800,57.795 394.800 C 58.068 394.800,58.721 395.132,59.246 395.538 C 59.771 395.943,61.100 396.607,62.200 397.012 C 63.300 397.418,64.618 398.067,65.128 398.454 C 65.639 398.842,66.899 399.283,67.928 399.435 C 68.958 399.586,70.610 400.117,71.600 400.615 C 72.741 401.188,74.501 401.610,76.406 401.768 C 78.059 401.904,80.579 402.371,82.006 402.805 C 86.121 404.056,313.656 404.051,317.708 402.799 C 319.133 402.359,321.819 401.845,323.677 401.657 C 325.539 401.468,327.490 401.029,328.027 400.677 C 328.562 400.327,330.063 399.764,331.362 399.426 C 332.661 399.088,334.011 398.553,334.362 398.237 C 334.713 397.921,335.540 397.536,336.200 397.381 C 336.860 397.226,338.220 396.605,339.222 396.001 C 340.224 395.397,341.422 394.783,341.885 394.637 C 342.348 394.490,342.822 394.120,342.939 393.814 C 343.057 393.508,343.955 392.903,344.936 392.470 C 345.917 392.036,347.052 391.384,347.460 391.023 C 347.867 390.661,349.010 389.747,350.000 388.993 C 350.990 388.238,352.296 387.211,352.903 386.710 C 354.851 385.102,360.168 379.776,361.200 378.399 C 361.750 377.665,362.605 376.637,363.100 376.114 C 363.595 375.591,364.000 375.006,364.000 374.813 C 364.000 374.619,364.442 373.936,364.983 373.293 C 366.475 371.520,369.855 365.208,371.973 360.238 C 373.203 357.353,375.432 348.795,376.163 344.152 C 377.103 338.179,377.122 246.607,376.185 240.826 C 375.386 235.901,373.472 228.475,372.157 225.200 C 370.886 222.033,368.311 216.680,367.918 216.386 C 367.760 216.268,367.333 215.458,366.969 214.586 C 366.604 213.714,365.832 212.437,365.253 211.748 C 364.674 211.059,363.570 209.571,362.800 208.440 C 362.030 207.310,360.365 205.291,359.100 203.955 C 357.835 202.618,356.800 201.361,356.800 201.162 C 356.800 200.963,356.543 200.800,356.229 200.800 C 355.915 200.800,355.330 200.395,354.929 199.900 C 354.528 199.405,353.480 198.504,352.600 197.898 C 351.720 197.292,350.190 196.170,349.200 195.403 C 348.210 194.637,346.644 193.632,345.720 193.171 C 344.797 192.709,343.821 192.066,343.552 191.742 C 343.284 191.419,342.509 190.895,341.832 190.579 C 341.154 190.262,340.050 189.666,339.378 189.254 C 338.706 188.841,337.716 188.365,337.178 188.197 C 336.640 188.028,335.782 187.564,335.272 187.165 C 334.761 186.767,333.501 186.317,332.472 186.167 C 331.442 186.016,330.150 185.580,329.600 185.199 C 328.278 184.282,327.540 184.074,323.990 183.623 C 322.345 183.413,320.430 182.957,319.733 182.608 C 317.633 181.557,309.561 181.224,285.919 181.212 C 260.418 181.198,260.412 181.198,262.716 178.559 C 267.805 172.733,272.054 167.462,272.729 166.139 C 273.176 165.263,273.825 164.311,274.171 164.024 C 274.517 163.737,274.800 163.340,274.800 163.141 C 274.800 162.943,275.430 161.865,276.200 160.745 C 276.970 159.626,277.600 158.488,277.600 158.217 C 277.600 157.946,277.950 157.407,278.377 157.021 C 278.805 156.634,279.268 155.802,279.406 155.172 C 279.545 154.542,280.102 153.372,280.645 152.572 C 281.187 151.772,281.895 150.101,282.217 148.859 C 282.539 147.617,283.083 146.392,283.426 146.138 C 283.798 145.862,284.205 144.581,284.434 142.959 C 284.646 141.464,285.062 139.962,285.359 139.621 C 286.169 138.690,286.702 136.545,286.954 133.200 C 287.079 131.550,287.555 129.143,288.011 127.850 C 288.761 125.731,288.843 124.576,288.854 116.050 C 288.867 106.448,288.761 105.177,287.763 102.941 C 287.455 102.249,287.047 99.853,286.858 97.617 C 286.593 94.480,286.322 93.291,285.672 92.411 C 285.208 91.784,284.654 90.187,284.441 88.862 C 284.228 87.537,283.770 86.021,283.425 85.495 C 283.080 84.968,282.528 83.631,282.200 82.523 C 281.871 81.416,281.269 80.080,280.862 79.555 C 280.455 79.030,279.991 78.060,279.830 77.400 C 279.669 76.740,279.132 75.660,278.635 75.000 C 278.139 74.340,277.531 73.210,277.283 72.488 C 277.036 71.767,276.601 70.933,276.317 70.636 C 275.801 70.098,273.938 67.213,272.800 65.193 C 272.153 64.044,270.013 61.294,268.400 59.539 C 267.850 58.941,266.410 57.348,265.200 56.000 C 261.303 51.659,252.862 44.110,250.440 42.800 C 249.830 42.470,248.266 41.489,246.965 40.620 C 245.664 39.751,243.610 38.530,242.400 37.906 C 241.190 37.282,239.750 36.524,239.200 36.221 C 238.650 35.918,237.750 35.465,237.200 35.215 C 236.650 34.964,235.570 34.425,234.800 34.018 C 234.030 33.611,232.745 33.171,231.944 33.041 C 231.143 32.911,230.387 32.543,230.265 32.224 C 230.142 31.905,229.358 31.529,228.521 31.389 C 225.847 30.941,222.870 30.010,222.725 29.576 C 222.648 29.345,220.699 28.982,218.393 28.769 C 216.087 28.556,213.120 28.036,211.800 27.612 C 209.032 26.724,198.724 26.275,192.600 26.774 " stroke="none" fill="#3215d6" fill-rule="evenodd"></path><path id="path2" d="M188.000 26.580 C 181.959 27.987,179.838 28.400,178.658 28.400 C 177.949 28.400,176.686 28.748,175.851 29.174 C 175.016 29.600,173.403 30.146,172.266 30.388 C 171.130 30.630,169.348 31.272,168.307 31.814 C 167.266 32.356,166.174 32.800,165.880 32.800 C 165.101 32.800,155.004 38.014,152.246 39.841 C 150.951 40.698,149.601 41.580,149.246 41.800 C 143.147 45.576,134.789 53.317,128.694 60.835 C 124.941 65.463,118.641 76.525,117.208 81.000 C 116.926 81.880,116.558 82.780,116.390 83.000 C 116.221 83.220,115.685 84.750,115.197 86.400 C 114.710 88.050,114.066 89.878,113.765 90.462 C 113.465 91.045,113.024 92.845,112.785 94.462 C 112.546 96.078,112.105 98.210,111.804 99.200 C 110.141 104.674,109.827 125.520,111.334 130.400 C 111.708 131.610,112.286 134.298,112.618 136.373 C 112.951 138.448,113.377 140.338,113.565 140.573 C 113.753 140.808,114.396 142.620,114.993 144.600 C 115.591 146.580,116.218 148.380,116.388 148.600 C 116.557 148.820,116.921 149.720,117.197 150.600 C 118.437 154.556,125.540 166.874,128.748 170.632 C 129.327 171.310,130.430 172.630,131.200 173.567 C 131.970 174.504,133.541 176.289,134.691 177.535 C 135.841 178.781,136.786 179.932,136.791 180.092 C 136.810 180.715,134.165 180.791,108.000 180.913 L 81.000 181.039 78.000 182.079 C 76.350 182.651,74.118 183.227,73.040 183.360 C 71.962 183.493,70.522 183.885,69.840 184.233 C 69.158 184.580,67.430 185.228,66.000 185.672 C 64.570 186.117,63.130 186.709,62.800 186.989 C 62.470 187.270,61.480 187.729,60.600 188.010 C 59.720 188.291,58.460 188.923,57.800 189.414 C 57.140 189.905,56.196 190.430,55.702 190.580 C 55.209 190.730,54.579 191.072,54.302 191.341 C 54.026 191.610,53.162 192.220,52.382 192.697 C 51.602 193.174,50.580 193.887,50.112 194.282 C 49.643 194.677,48.429 195.630,47.415 196.400 C 44.032 198.969,39.504 203.574,36.712 207.285 C 34.915 209.674,32.925 212.480,32.200 213.647 C 30.425 216.506,29.204 218.671,28.617 220.000 C 28.277 220.770,27.556 222.300,27.015 223.400 C 26.473 224.500,25.910 226.027,25.763 226.794 C 25.616 227.561,25.243 228.572,24.936 229.042 C 24.628 229.511,24.025 231.674,23.595 233.848 C 23.165 236.021,22.542 238.790,22.211 240.000 C 21.173 243.796,21.311 341.552,22.359 345.408 C 22.777 346.944,23.346 349.550,23.624 351.200 C 23.902 352.850,24.438 354.830,24.816 355.600 C 25.193 356.370,25.634 357.630,25.796 358.400 C 25.957 359.170,26.514 360.610,27.033 361.600 C 27.552 362.590,28.338 364.210,28.778 365.200 C 29.219 366.190,29.810 367.353,30.090 367.785 C 30.848 368.951,32.485 371.650,33.185 372.887 C 34.355 374.955,41.590 383.495,43.691 385.287 C 50.331 390.953,57.887 396.227,60.600 397.089 C 61.040 397.229,62.528 397.941,63.906 398.672 C 65.284 399.402,66.814 400.006,67.306 400.013 C 67.798 400.019,69.100 400.468,70.200 401.009 C 71.300 401.550,72.650 401.996,73.200 402.001 C 73.750 402.006,76.450 402.545,79.200 403.200 L 84.200 404.390 199.836 404.395 C 314.007 404.400,315.512 404.390,318.587 403.603 C 320.300 403.165,323.241 402.518,325.122 402.166 C 327.004 401.813,329.183 401.182,329.966 400.762 C 330.748 400.343,331.687 400.000,332.053 400.000 C 332.655 400.000,338.147 397.651,339.600 396.772 C 339.930 396.572,340.830 396.061,341.600 395.637 C 342.370 395.212,343.309 394.495,343.687 394.043 C 344.064 393.592,344.874 393.100,345.487 392.952 C 349.781 391.909,362.903 378.814,367.684 370.800 C 370.519 366.048,374.000 358.801,374.000 357.651 C 374.000 357.405,374.353 356.167,374.785 354.902 C 375.217 353.636,375.982 350.710,376.485 348.400 L 377.400 344.200 377.400 292.600 L 377.400 241.000 376.474 236.600 C 375.204 230.564,372.344 222.018,370.784 219.600 C 370.572 219.270,369.937 218.100,369.375 217.000 C 367.662 213.652,363.628 207.771,361.142 205.000 C 356.366 199.676,349.697 193.973,346.538 192.512 C 345.692 192.120,343.963 191.048,342.697 190.130 C 341.430 189.211,339.734 188.242,338.929 187.977 C 338.124 187.711,336.910 187.173,336.233 186.780 C 335.555 186.388,334.032 185.785,332.849 185.440 C 331.665 185.095,330.462 184.617,330.174 184.378 C 329.886 184.139,328.244 183.696,326.525 183.392 C 324.806 183.088,322.320 182.437,321.000 181.944 C 318.624 181.057,318.328 181.046,291.120 180.824 C 273.618 180.681,263.494 180.455,263.239 180.200 C 262.865 179.825,263.708 178.729,268.946 172.775 C 271.581 169.779,276.749 162.096,278.133 159.117 C 278.511 158.301,278.983 157.534,279.182 157.411 C 279.380 157.289,279.762 156.516,280.032 155.694 C 280.302 154.872,280.922 153.565,281.410 152.789 C 281.898 152.014,282.431 150.769,282.595 150.024 C 282.759 149.278,283.322 147.861,283.846 146.875 C 284.371 145.888,284.800 144.643,284.800 144.107 C 284.800 143.572,285.318 141.934,285.950 140.467 C 286.657 138.828,287.198 136.721,287.353 135.000 C 287.491 133.460,287.867 131.452,288.188 130.537 C 290.166 124.893,290.177 106.403,288.205 101.000 C 287.884 100.120,287.443 97.870,287.225 96.000 C 286.965 93.769,286.480 91.924,285.815 90.632 C 285.257 89.550,284.800 88.182,284.800 87.592 C 284.800 87.002,284.371 85.712,283.846 84.725 C 283.322 83.739,282.759 82.322,282.595 81.576 C 282.431 80.831,281.897 79.586,281.407 78.811 C 280.917 78.035,280.380 76.968,280.213 76.440 C 277.310 67.288,258.737 45.824,250.224 41.785 C 249.441 41.413,248.800 40.990,248.800 40.845 C 248.800 40.700,248.125 40.235,247.300 39.811 C 246.475 39.387,245.530 38.819,245.200 38.549 C 244.240 37.763,234.261 32.810,233.600 32.792 C 233.270 32.782,231.925 32.241,230.610 31.587 C 229.296 30.934,227.801 30.400,227.288 30.400 C 226.776 30.400,225.527 30.022,224.514 29.561 C 223.501 29.099,221.505 28.556,220.079 28.354 C 218.653 28.152,215.545 27.540,213.172 26.994 C 208.121 25.830,192.332 25.571,188.000 26.580 M211.800 27.612 C 213.120 28.036,216.087 28.556,218.393 28.769 C 220.699 28.982,222.648 29.345,222.725 29.576 C 222.870 30.010,225.847 30.941,228.521 31.389 C 229.358 31.529,230.142 31.905,230.265 32.224 C 230.387 32.543,231.143 32.911,231.944 33.041 C 232.745 33.171,234.030 33.611,234.800 34.018 C 235.570 34.425,236.650 34.964,237.200 35.215 C 237.750 35.465,238.650 35.918,239.200 36.221 C 239.750 36.524,241.190 37.282,242.400 37.906 C 243.610 38.530,245.664 39.751,246.965 40.620 C 248.266 41.489,249.830 42.470,250.440 42.800 C 252.862 44.110,261.303 51.659,265.200 56.000 C 266.410 57.348,267.850 58.941,268.400 59.539 C 270.013 61.294,272.153 64.044,272.800 65.193 C 273.938 67.213,275.801 70.098,276.317 70.636 C 276.601 70.933,277.036 71.767,277.283 72.488 C 277.531 73.210,278.139 74.340,278.635 75.000 C 279.132 75.660,279.669 76.740,279.830 77.400 C 279.991 78.060,280.455 79.030,280.862 79.555 C 281.269 80.080,281.871 81.416,282.200 82.523 C 282.528 83.631,283.080 84.968,283.425 85.495 C 283.770 86.021,284.228 87.537,284.441 88.862 C 284.654 90.187,285.208 91.784,285.672 92.411 C 286.322 93.291,286.593 94.480,286.858 97.617 C 287.047 99.853,287.455 102.249,287.763 102.941 C 288.761 105.177,288.867 106.448,288.854 116.050 C 288.843 124.576,288.761 125.731,288.011 127.850 C 287.555 129.143,287.079 131.550,286.954 133.200 C 286.702 136.545,286.169 138.690,285.359 139.621 C 285.062 139.962,284.646 141.464,284.434 142.959 C 284.205 144.581,283.798 145.862,283.426 146.138 C 283.083 146.392,282.539 147.617,282.217 148.859 C 281.895 150.101,281.187 151.772,280.645 152.572 C 280.102 153.372,279.545 154.542,279.406 155.172 C 279.268 155.802,278.805 156.634,278.377 157.021 C 277.950 157.407,277.600 157.946,277.600 158.217 C 277.600 158.488,276.970 159.626,276.200 160.745 C 275.430 161.865,274.800 162.943,274.800 163.141 C 274.800 163.340,274.517 163.737,274.171 164.024 C 273.825 164.311,273.176 165.263,272.729 166.139 C 272.054 167.462,267.805 172.733,262.716 178.559 C 260.412 181.198,260.418 181.198,285.919 181.212 C 309.561 181.224,317.633 181.557,319.733 182.608 C 320.430 182.957,322.345 183.413,323.990 183.623 C 327.540 184.074,328.278 184.282,329.600 185.199 C 330.150 185.580,331.442 186.016,332.472 186.167 C 333.501 186.317,334.761 186.767,335.272 187.165 C 335.782 187.564,336.640 188.028,337.178 188.197 C 337.716 188.365,338.706 188.841,339.378 189.254 C 340.050 189.666,341.154 190.262,341.832 190.579 C 342.509 190.895,343.284 191.419,343.552 191.742 C 343.821 192.066,344.797 192.709,345.720 193.171 C 346.644 193.632,348.210 194.637,349.200 195.403 C 350.190 196.170,351.720 197.292,352.600 197.898 C 353.480 198.504,354.528 199.405,354.929 199.900 C 355.330 200.395,355.915 200.800,356.229 200.800 C 356.543 200.800,356.800 200.963,356.800 201.162 C 356.800 201.361,357.835 202.618,359.100 203.955 C 360.365 205.291,362.030 207.310,362.800 208.440 C 363.570 209.571,364.674 211.059,365.253 211.748 C 365.832 212.437,366.604 213.714,366.969 214.586 C 367.333 215.458,367.760 216.268,367.918 216.386 C 368.311 216.680,370.886 222.033,372.157 225.200 C 373.472 228.475,375.386 235.901,376.185 240.826 C 377.122 246.607,377.103 338.179,376.163 344.152 C 375.432 348.795,373.203 357.353,371.973 360.238 C 369.855 365.208,366.475 371.520,364.983 373.293 C 364.442 373.936,364.000 374.619,364.000 374.813 C 364.000 375.006,363.595 375.591,363.100 376.114 C 362.605 376.637,361.750 377.665,361.200 378.399 C 360.168 379.776,354.851 385.102,352.903 386.710 C 352.296 387.211,350.990 388.238,350.000 388.993 C 349.010 389.747,347.867 390.661,347.460 391.023 C 347.052 391.384,345.917 392.036,344.936 392.470 C 343.955 392.903,343.057 393.508,342.939 393.814 C 342.822 394.120,342.348 394.490,341.885 394.637 C 341.422 394.783,340.224 395.397,339.222 396.001 C 338.220 396.605,336.860 397.226,336.200 397.381 C 335.540 397.536,334.713 397.921,334.362 398.237 C 334.011 398.553,332.661 399.088,331.362 399.426 C 330.063 399.764,328.562 400.327,328.027 400.677 C 327.490 401.029,325.539 401.468,323.677 401.657 C 321.819 401.845,319.133 402.359,317.708 402.799 C 313.656 404.051,86.121 404.056,82.006 402.805 C 80.579 402.371,78.059 401.904,76.406 401.768 C 74.501 401.610,72.741 401.188,71.600 400.615 C 70.610 400.117,68.958 399.586,67.928 399.435 C 66.899 399.283,65.639 398.842,65.128 398.454 C 64.618 398.067,63.300 397.418,62.200 397.012 C 61.100 396.607,59.771 395.943,59.246 395.538 C 58.721 395.132,58.068 394.800,57.795 394.800 C 57.522 394.800,57.063 394.517,56.776 394.171 C 56.489 393.825,55.547 393.181,54.684 392.741 C 53.426 392.099,49.483 389.124,46.545 386.600 C 44.917 385.201,40.003 380.251,39.000 378.999 C 38.340 378.175,36.882 376.398,35.761 375.051 C 34.640 373.703,33.401 371.979,33.009 371.220 C 32.617 370.460,32.050 369.592,31.748 369.291 C 31.447 368.990,31.200 368.521,31.200 368.249 C 31.200 367.978,30.746 367.140,30.191 366.388 C 29.637 365.636,28.989 364.303,28.753 363.425 C 28.516 362.547,27.991 361.406,27.585 360.890 C 27.179 360.374,26.638 358.927,26.383 357.676 C 26.128 356.424,25.598 354.860,25.205 354.200 C 24.812 353.540,24.369 351.740,24.220 350.200 C 24.071 348.660,23.556 345.960,23.075 344.200 L 22.200 341.000 22.200 292.200 L 22.200 243.400 23.076 240.600 C 23.558 239.060,24.075 236.450,24.224 234.800 C 24.376 233.121,24.805 231.272,25.199 230.600 C 25.586 229.940,26.121 228.410,26.389 227.200 C 26.656 225.990,27.204 224.531,27.606 223.958 C 28.009 223.385,28.537 222.178,28.780 221.275 C 29.023 220.372,29.417 219.513,29.656 219.366 C 29.894 219.218,30.517 218.131,31.040 216.949 C 31.562 215.767,32.155 214.800,32.356 214.800 C 32.557 214.800,32.911 214.258,33.141 213.596 C 33.537 212.463,34.764 210.775,37.300 207.878 C 37.905 207.187,38.400 206.467,38.400 206.278 C 38.400 205.929,45.406 198.933,46.489 198.200 C 47.627 197.430,50.609 195.220,51.650 194.376 C 52.227 193.907,53.058 193.316,53.497 193.062 C 53.935 192.808,54.723 192.317,55.247 191.972 C 57.818 190.276,60.452 188.845,61.850 188.384 C 62.703 188.103,63.850 187.544,64.400 187.140 C 64.950 186.737,66.235 186.252,67.256 186.063 C 68.277 185.874,69.723 185.342,70.471 184.880 C 71.320 184.355,72.875 183.940,74.615 183.773 C 76.147 183.626,78.198 183.162,79.173 182.743 C 81.929 181.558,89.763 181.213,114.067 181.206 C 139.428 181.199,139.128 181.242,136.100 178.078 C 135.495 177.446,134.497 176.315,133.883 175.564 C 133.269 174.814,132.310 173.660,131.753 173.000 C 131.195 172.340,130.439 171.350,130.072 170.800 C 129.704 170.250,128.998 169.472,128.502 169.071 C 128.006 168.670,127.600 168.149,127.600 167.912 C 127.600 167.448,125.112 163.505,123.995 162.200 C 123.619 161.760,123.131 160.860,122.911 160.200 C 122.691 159.539,122.049 158.318,121.484 157.486 C 120.920 156.654,120.343 155.452,120.203 154.814 C 120.063 154.177,119.700 153.449,119.397 153.197 C 119.093 152.946,118.447 151.538,117.961 150.070 C 117.475 148.601,116.836 147.029,116.542 146.577 C 116.249 146.124,115.824 144.780,115.598 143.591 C 115.373 142.401,114.808 140.644,114.344 139.685 C 113.857 138.677,113.342 136.478,113.124 134.471 C 112.917 132.562,112.477 130.460,112.146 129.800 C 110.554 126.620,110.560 104.888,112.154 101.779 C 112.498 101.108,112.896 99.218,113.038 97.579 C 113.180 95.941,113.717 93.520,114.230 92.200 C 114.743 90.880,115.353 88.941,115.585 87.892 C 115.817 86.843,116.365 85.315,116.803 84.498 C 117.242 83.681,117.600 82.774,117.600 82.483 C 117.600 81.827,121.093 74.421,121.790 73.600 C 122.070 73.270,122.516 72.323,122.782 71.496 C 123.047 70.669,123.481 69.769,123.747 69.496 C 124.431 68.792,126.679 65.394,127.460 63.884 C 127.822 63.183,128.587 62.148,129.159 61.583 C 129.732 61.019,131.100 59.492,132.200 58.192 C 134.438 55.544,139.536 50.430,141.760 48.600 C 142.562 47.940,143.532 47.130,143.916 46.800 C 145.438 45.493,148.782 42.962,149.860 42.302 C 150.487 41.917,151.810 41.062,152.800 40.401 C 153.790 39.739,155.542 38.737,156.692 38.173 C 157.843 37.610,158.881 36.993,158.998 36.803 C 159.115 36.614,159.884 36.237,160.706 35.967 C 161.528 35.696,162.830 35.062,163.600 34.557 C 164.370 34.052,165.754 33.472,166.676 33.268 C 167.598 33.063,168.837 32.514,169.430 32.048 C 170.023 31.582,170.835 31.200,171.234 31.200 C 172.755 31.200,176.037 30.306,176.606 29.737 C 176.987 29.356,178.664 29.000,181.300 28.743 C 183.555 28.522,186.210 28.055,187.200 27.705 C 191.338 26.241,207.335 26.181,211.800 27.612 " stroke="none" fill="#c4c4c4" fill-rule="evenodd"></path><path id="path3" d="M187.689 25.618 C 185.340 25.811,183.604 26.168,182.957 26.591 C 182.395 26.960,180.555 27.407,178.868 27.586 C 175.558 27.937,174.556 28.217,173.558 29.071 C 173.204 29.373,171.786 29.819,170.406 30.062 C 168.984 30.312,167.572 30.828,167.148 31.252 C 166.737 31.663,166.153 32.000,165.850 32.000 C 164.815 32.000,161.815 33.229,161.507 33.780 C 161.338 34.082,160.473 34.452,159.586 34.602 C 158.698 34.752,157.483 35.282,156.886 35.780 C 156.289 36.277,155.147 36.897,154.348 37.157 C 153.550 37.417,152.577 37.983,152.186 38.415 C 151.796 38.847,151.313 39.200,151.114 39.200 C 150.915 39.200,149.927 39.830,148.918 40.600 C 147.910 41.370,146.845 42.000,146.552 42.000 C 146.258 42.000,145.724 42.450,145.363 43.000 C 145.003 43.550,144.524 44.000,144.299 44.000 C 143.414 44.000,134.124 52.777,130.087 57.427 C 129.146 58.512,127.931 59.898,127.387 60.507 C 126.844 61.116,126.400 61.763,126.400 61.945 C 126.400 62.127,125.950 62.799,125.400 63.438 C 124.851 64.077,124.401 64.797,124.400 65.038 C 124.400 65.279,124.073 65.772,123.673 66.134 C 123.273 66.496,122.531 67.559,122.024 68.496 C 121.517 69.433,120.495 71.280,119.752 72.600 C 119.010 73.920,118.035 75.810,117.586 76.800 C 117.138 77.790,116.506 79.140,116.183 79.800 C 115.233 81.743,113.574 86.757,112.742 90.200 C 111.632 94.792,111.223 96.343,110.529 98.600 C 109.079 103.311,109.431 130.796,110.989 134.515 C 111.338 135.349,111.897 137.597,112.231 139.512 C 112.565 141.427,113.115 143.535,113.454 144.197 C 113.792 144.858,114.333 146.390,114.655 147.600 C 114.977 148.810,115.591 150.395,116.020 151.123 C 116.449 151.850,116.800 152.672,116.800 152.948 C 116.800 154.063,121.915 163.352,123.500 165.115 C 123.995 165.666,124.400 166.269,124.400 166.455 C 124.400 167.151,127.767 171.435,131.675 175.711 C 135.306 179.683,135.600 180.019,135.600 180.197 C 135.600 180.290,122.505 180.418,106.500 180.483 C 77.906 180.598,77.369 180.615,75.600 181.440 C 74.610 181.901,72.640 182.501,71.222 182.771 C 69.803 183.042,68.003 183.584,67.222 183.975 C 66.440 184.366,65.260 184.811,64.600 184.962 C 63.495 185.216,57.259 188.163,55.404 189.309 C 51.656 191.622,50.023 192.703,48.954 193.579 C 48.269 194.140,47.122 195.050,46.406 195.600 C 45.184 196.538,40.764 200.838,38.300 203.485 C 37.695 204.135,37.200 204.849,37.200 205.072 C 37.200 205.295,36.615 206.123,35.900 206.913 C 33.367 209.711,32.739 210.603,32.516 211.722 C 32.391 212.345,31.878 213.124,31.375 213.453 C 30.871 213.783,30.291 214.536,30.085 215.127 C 29.880 215.718,29.236 216.901,28.656 217.756 C 28.075 218.612,27.600 219.622,27.600 220.002 C 27.600 220.382,27.221 221.174,26.758 221.763 C 26.294 222.352,25.649 223.852,25.324 225.096 C 25.000 226.340,24.410 227.770,24.014 228.273 C 23.583 228.821,23.178 230.272,23.005 231.893 C 22.845 233.381,22.363 235.288,21.933 236.131 C 20.658 238.630,20.429 247.194,20.429 292.400 C 20.429 337.499,20.664 346.327,21.931 348.757 C 22.355 349.572,22.832 351.399,22.989 352.819 C 23.160 354.358,23.659 356.066,24.225 357.049 C 24.747 357.956,25.296 359.458,25.444 360.387 C 25.593 361.316,26.031 362.373,26.418 362.738 C 26.805 363.102,27.320 364.139,27.561 365.041 C 27.802 365.944,28.433 367.151,28.964 367.723 C 29.494 368.296,30.043 369.287,30.184 369.927 C 30.324 370.567,30.881 371.474,31.420 371.942 C 31.959 372.411,32.400 373.034,32.400 373.327 C 32.400 373.839,35.149 377.606,36.532 378.989 C 36.899 379.357,37.200 379.826,37.200 380.031 C 37.200 380.610,44.860 388.130,46.100 388.769 C 46.705 389.080,47.200 389.468,47.200 389.631 C 47.200 389.793,48.010 390.438,48.999 391.063 C 49.989 391.688,50.799 392.313,50.799 392.451 C 50.800 392.590,51.385 392.939,52.100 393.227 C 52.815 393.516,53.790 394.160,54.266 394.660 C 54.742 395.159,55.642 395.689,56.266 395.836 C 56.890 395.984,57.760 396.419,58.200 396.803 C 59.331 397.788,60.614 398.400,61.551 398.400 C 61.993 398.400,62.606 398.759,62.914 399.198 C 63.254 399.684,64.242 400.143,65.436 400.370 C 66.516 400.575,68.210 401.185,69.200 401.724 C 70.242 402.293,71.976 402.799,73.318 402.926 C 74.593 403.047,76.483 403.563,77.518 404.073 L 79.400 405.000 197.200 405.112 C 315.673 405.225,320.444 405.176,322.518 403.817 C 323.033 403.479,324.613 403.087,326.028 402.945 C 327.603 402.786,329.452 402.259,330.800 401.583 C 332.010 400.976,333.652 400.368,334.449 400.232 C 335.245 400.095,336.308 399.627,336.810 399.192 C 337.312 398.756,337.959 398.400,338.248 398.400 C 339.035 398.400,341.600 397.103,341.600 396.705 C 341.600 396.514,342.115 396.179,342.745 395.959 C 343.375 395.740,344.079 395.145,344.310 394.637 C 344.607 393.985,345.194 393.639,346.301 393.462 C 347.165 393.324,348.395 392.766,349.036 392.223 C 349.676 391.680,350.740 390.766,351.400 390.193 C 352.060 389.620,353.591 388.397,354.803 387.475 C 357.468 385.448,360.770 382.109,362.788 379.400 C 363.608 378.299,364.576 377.152,364.939 376.851 C 365.303 376.549,365.600 376.060,365.600 375.765 C 365.600 375.470,365.948 375.042,366.373 374.814 C 366.798 374.587,367.274 373.998,367.430 373.506 C 367.586 373.014,368.210 371.979,368.816 371.206 C 369.423 370.433,370.053 369.350,370.217 368.800 C 370.381 368.250,370.916 367.260,371.405 366.600 C 371.894 365.940,372.423 364.860,372.579 364.200 C 372.735 363.540,373.121 362.713,373.437 362.362 C 373.753 362.011,374.278 360.701,374.604 359.450 C 374.930 358.199,375.532 356.506,375.943 355.688 C 376.354 354.870,376.811 353.210,376.958 352.000 C 377.105 350.790,377.625 348.540,378.113 347.000 L 379.000 344.200 379.000 292.400 C 379.000 243.289,378.962 240.487,378.269 238.430 C 377.867 237.237,377.286 234.826,376.978 233.073 C 376.670 231.320,376.175 229.507,375.879 229.043 C 375.583 228.579,375.018 227.035,374.624 225.611 C 374.231 224.186,373.689 222.836,373.420 222.611 C 373.151 222.385,372.711 221.425,372.443 220.477 C 372.174 219.529,371.625 218.425,371.223 218.023 C 370.821 217.621,370.287 216.668,370.035 215.905 C 369.783 215.142,369.132 214.100,368.588 213.589 C 368.045 213.078,367.600 212.402,367.600 212.085 C 367.600 211.498,366.421 209.893,364.100 207.319 C 363.385 206.526,362.800 205.742,362.800 205.576 C 362.800 205.341,360.146 202.386,357.699 199.896 C 356.003 198.170,352.611 195.233,350.639 193.781 C 349.298 192.794,347.840 191.712,347.400 191.377 C 346.960 191.041,346.150 190.656,345.600 190.521 C 345.050 190.386,344.237 189.890,343.793 189.418 C 342.808 188.371,336.727 185.377,334.800 184.991 C 334.030 184.837,333.130 184.476,332.800 184.189 C 332.151 183.625,327.806 182.400,326.455 182.400 C 325.998 182.400,324.854 181.995,323.912 181.500 L 322.200 180.600 293.300 180.483 C 277.405 180.418,264.403 180.238,264.407 180.083 C 264.413 179.857,268.967 174.361,272.170 170.714 C 272.502 170.336,273.227 169.346,273.782 168.514 C 274.337 167.681,275.091 166.550,275.457 166.000 C 275.823 165.450,276.623 164.266,277.236 163.370 C 277.849 162.473,278.471 161.258,278.618 160.670 C 278.766 160.081,279.026 159.600,279.197 159.600 C 279.368 159.600,279.920 158.565,280.425 157.300 C 280.930 156.035,281.656 154.590,282.038 154.088 C 282.421 153.587,282.862 152.417,283.018 151.488 C 283.174 150.560,283.630 149.383,284.030 148.873 C 284.430 148.363,285.055 146.608,285.419 144.973 C 285.783 143.338,286.228 142.000,286.409 142.000 C 286.894 142.000,287.497 139.751,287.794 136.829 C 287.938 135.416,288.448 133.526,288.928 132.629 C 290.305 130.056,290.286 101.509,288.905 98.926 C 288.358 97.902,287.872 96.010,287.652 94.050 C 287.436 92.119,286.978 90.321,286.499 89.523 C 286.061 88.795,285.597 87.495,285.466 86.634 C 285.336 85.773,284.783 84.153,284.237 83.034 C 283.691 81.915,283.133 80.423,282.995 79.719 C 282.857 79.014,282.431 78.024,282.047 77.519 C 281.663 77.013,281.032 75.747,280.643 74.704 C 280.255 73.661,279.772 72.706,279.570 72.581 C 279.368 72.457,278.825 71.478,278.364 70.406 C 277.903 69.334,277.183 68.146,276.763 67.767 C 276.343 67.387,276.000 66.856,276.000 66.587 C 276.000 66.318,275.717 65.863,275.371 65.576 C 275.025 65.289,274.370 64.321,273.915 63.427 C 271.988 59.632,259.149 46.072,255.803 44.299 C 255.361 44.065,254.788 43.575,254.529 43.210 C 254.270 42.846,253.288 42.200,252.346 41.776 C 251.405 41.351,250.267 40.667,249.817 40.255 C 248.638 39.175,244.717 36.800,244.113 36.800 C 243.831 36.800,243.250 36.450,242.823 36.023 C 242.396 35.596,241.275 35.015,240.333 34.733 C 239.390 34.450,238.324 33.924,237.962 33.562 C 237.601 33.201,236.345 32.675,235.172 32.393 C 233.999 32.112,232.699 31.565,232.283 31.177 C 231.867 30.790,230.438 30.281,229.106 30.046 C 227.774 29.812,226.396 29.373,226.042 29.071 C 225.079 28.247,224.112 27.981,220.647 27.584 C 218.913 27.385,217.059 26.938,216.527 26.589 C 214.652 25.360,197.769 24.792,187.689 25.618 M213.415 26.804 C 214.963 27.215,217.902 27.820,219.945 28.149 C 221.988 28.478,224.083 29.025,224.601 29.364 C 225.120 29.704,226.321 30.101,227.272 30.248 C 228.222 30.394,230.030 31.028,231.289 31.657 C 232.547 32.286,233.842 32.800,234.165 32.800 C 234.795 32.800,244.513 37.661,245.568 38.504 C 245.916 38.782,246.830 39.348,247.600 39.762 C 248.370 40.176,249.360 40.823,249.800 41.198 C 250.240 41.574,250.870 41.979,251.200 42.099 C 251.764 42.305,257.775 46.939,258.952 48.077 C 259.250 48.364,260.463 49.523,261.647 50.651 C 269.167 57.816,280.400 73.214,280.400 76.357 C 280.400 76.610,280.837 77.488,281.370 78.309 C 281.904 79.129,282.541 80.568,282.787 81.506 C 283.033 82.444,283.566 83.794,283.973 84.506 C 284.379 85.218,284.834 86.520,284.984 87.400 C 285.134 88.280,285.671 89.900,286.178 91.000 C 286.684 92.100,287.226 94.170,287.380 95.600 C 287.535 97.030,288.098 99.705,288.631 101.545 C 289.992 106.241,290.071 124.801,288.750 129.400 C 288.307 130.940,287.706 133.730,287.413 135.600 C 287.120 137.470,286.416 140.080,285.850 141.400 C 285.283 142.720,284.814 144.250,284.808 144.800 C 284.802 145.350,284.448 146.372,284.022 147.072 C 283.595 147.771,283.040 149.109,282.788 150.045 C 282.536 150.980,281.896 152.385,281.365 153.166 C 280.834 153.947,280.400 154.830,280.400 155.128 C 280.400 156.870,273.857 167.047,269.000 172.860 C 263.183 179.822,263.057 179.990,263.375 180.309 C 263.535 180.469,276.206 180.690,291.533 180.800 L 319.400 181.000 322.000 181.938 C 323.430 182.454,325.680 183.049,327.000 183.261 C 328.320 183.472,329.760 183.879,330.200 184.166 C 330.640 184.452,332.080 184.992,333.400 185.366 C 334.720 185.740,336.250 186.367,336.800 186.760 C 337.350 187.153,338.520 187.710,339.400 188.000 C 340.280 188.289,341.920 189.204,343.044 190.034 C 344.168 190.864,345.698 191.800,346.444 192.115 C 347.190 192.430,348.568 193.298,349.506 194.044 C 350.444 194.790,351.974 196.005,352.906 196.744 C 358.927 201.519,369.600 214.490,369.600 217.033 C 369.600 217.285,369.933 217.921,370.340 218.446 C 372.204 220.849,375.441 230.147,376.869 237.200 L 377.800 241.800 377.788 292.800 L 377.776 343.800 376.527 349.200 C 374.561 357.693,371.362 365.839,368.083 370.698 C 367.674 371.304,366.732 372.700,365.989 373.800 C 362.934 378.323,358.110 383.594,353.600 387.339 C 352.610 388.161,351.530 389.076,351.200 389.371 C 349.360 391.020,346.678 392.813,345.710 393.041 C 345.099 393.184,344.060 393.778,343.400 394.360 C 341.633 395.917,339.916 397.047,338.792 397.391 C 338.247 397.558,336.894 398.186,335.786 398.787 C 334.678 399.387,333.077 400.009,332.227 400.168 C 331.378 400.328,330.263 400.733,329.750 401.069 C 329.237 401.406,327.132 402.007,325.072 402.406 C 323.013 402.805,320.366 403.417,319.191 403.766 C 315.524 404.855,83.745 404.721,79.792 403.628 C 78.256 403.203,75.740 402.644,74.200 402.386 C 72.660 402.128,70.820 401.585,70.112 401.179 C 69.403 400.773,68.143 400.318,67.312 400.167 C 65.999 399.930,64.387 399.223,60.000 396.960 C 59.450 396.677,58.055 395.955,56.900 395.357 C 55.745 394.759,54.800 394.148,54.800 393.999 C 54.800 393.850,54.369 393.532,53.842 393.292 C 49.881 391.487,40.230 382.685,36.310 377.300 C 34.988 375.485,33.760 374.000,33.580 374.000 C 33.401 374.000,33.140 373.640,33.000 373.200 C 32.860 372.760,32.128 371.482,31.373 370.360 C 30.618 369.238,30.000 368.090,30.000 367.809 C 30.000 367.528,29.753 367.093,29.452 366.843 C 29.151 366.593,28.584 365.536,28.193 364.494 C 27.801 363.452,27.163 362.144,26.775 361.586 C 26.386 361.029,25.939 359.859,25.780 358.986 C 25.622 358.114,25.169 356.758,24.775 355.973 C 24.381 355.189,23.773 353.029,23.423 351.173 C 23.074 349.318,22.476 346.900,22.094 345.800 C 21.024 342.716,21.024 242.084,22.094 239.000 C 22.476 237.900,23.074 235.482,23.423 233.627 C 23.773 231.771,24.381 229.611,24.775 228.827 C 25.169 228.042,25.622 226.686,25.780 225.814 C 25.939 224.941,26.386 223.771,26.775 223.214 C 27.163 222.656,27.802 221.345,28.195 220.300 C 28.587 219.255,29.040 218.400,29.201 218.400 C 29.362 218.400,29.878 217.545,30.349 216.500 C 31.242 214.518,31.920 213.481,35.091 209.256 C 36.141 207.856,37.208 206.349,37.462 205.906 C 37.716 205.462,38.297 204.717,38.753 204.250 C 39.208 203.782,40.412 202.548,41.428 201.507 C 43.824 199.052,47.057 196.308,50.800 193.554 C 55.494 190.099,61.298 187.005,66.400 185.237 C 67.610 184.818,69.320 184.196,70.200 183.855 C 71.080 183.514,72.272 183.227,72.849 183.218 C 73.426 183.208,75.316 182.707,77.049 182.103 L 80.200 181.007 108.067 180.803 C 123.394 180.692,136.061 180.473,136.217 180.317 C 136.372 180.162,134.447 177.642,131.938 174.717 C 127.522 169.568,124.772 165.780,122.129 161.201 C 120.733 158.782,117.200 151.746,117.200 151.384 C 117.200 151.259,116.860 150.401,116.444 149.478 C 116.028 148.555,115.375 146.720,114.993 145.400 C 114.610 144.080,113.974 142.187,113.578 141.194 C 113.182 140.201,112.686 138.221,112.476 136.794 C 112.265 135.367,111.688 132.760,111.194 131.000 C 109.827 126.130,109.820 105.463,111.184 100.600 C 111.678 98.840,112.339 95.882,112.652 94.027 C 112.966 92.172,113.370 90.462,113.551 90.227 C 113.731 89.992,114.374 88.180,114.979 86.200 C 115.585 84.220,116.219 82.420,116.388 82.200 C 116.557 81.980,116.926 81.087,117.207 80.215 C 117.488 79.343,118.618 76.913,119.718 74.815 C 120.818 72.717,121.997 70.460,122.338 69.800 C 122.679 69.140,123.508 67.851,124.179 66.935 C 124.851 66.020,125.850 64.507,126.400 63.574 C 126.950 62.641,127.678 61.590,128.019 61.239 C 128.359 60.887,129.709 59.350,131.019 57.823 C 134.858 53.346,141.002 47.415,144.194 45.106 C 144.417 44.944,145.140 44.389,145.800 43.872 C 147.848 42.269,154.932 37.788,156.300 37.232 C 157.015 36.941,157.600 36.567,157.600 36.400 C 157.600 36.234,158.674 35.696,159.988 35.205 C 161.301 34.713,162.573 34.073,162.815 33.782 C 163.057 33.490,163.828 33.133,164.528 32.988 C 165.227 32.844,166.880 32.228,168.200 31.621 C 169.520 31.014,171.378 30.396,172.328 30.249 C 173.279 30.102,174.472 29.709,174.980 29.377 C 175.487 29.044,177.860 28.427,180.251 28.006 C 182.643 27.586,185.230 27.027,186.000 26.765 C 189.521 25.568,208.858 25.595,213.415 26.804 " stroke="none" fill="#d4d4d4" fill-rule="evenodd"></path><path id="path4" d="M256.767 46.545 C 257.300 47.201,258.800 48.193,258.800 47.889 C 258.800 47.813,258.215 47.322,257.500 46.799 C 256.696 46.210,256.416 46.113,256.767 46.545 M140.094 48.412 C 139.375 49.065,138.937 49.600,139.119 49.600 C 139.301 49.600,139.968 49.060,140.600 48.400 C 142.070 46.865,141.786 46.872,140.094 48.412 M132.229 56.362 L 131.058 57.800 132.409 56.513 C 133.151 55.805,133.678 55.158,133.579 55.075 C 133.481 54.992,132.873 55.571,132.229 56.362 M123.229 68.254 C 122.773 68.834,122.405 69.509,122.412 69.754 C 122.419 69.999,122.624 69.840,122.868 69.400 C 123.112 68.960,123.585 68.285,123.918 67.900 C 124.251 67.515,124.419 67.200,124.291 67.200 C 124.163 67.200,123.685 67.674,123.229 68.254 M114.629 87.029 C 114.481 87.615,114.438 88.172,114.532 88.266 C 114.627 88.360,114.824 87.958,114.971 87.371 C 115.119 86.785,115.162 86.228,115.068 86.134 C 114.973 86.040,114.776 86.442,114.629 87.029 M289.293 105.600 C 289.293 106.370,289.375 106.685,289.476 106.300 C 289.576 105.915,289.576 105.285,289.476 104.900 C 289.375 104.515,289.293 104.830,289.293 105.600 M110.161 115.600 C 110.161 119.010,110.222 120.405,110.297 118.700 C 110.372 116.995,110.372 114.205,110.297 112.500 C 110.222 110.795,110.161 112.190,110.161 115.600 M111.261 131.200 C 111.261 131.530,111.503 132.430,111.800 133.200 C 112.097 133.970,112.339 134.330,112.339 134.000 C 112.339 133.670,112.097 132.770,111.800 132.000 C 111.503 131.230,111.261 130.870,111.261 131.200 M120.000 157.489 C 120.000 157.721,120.371 158.336,120.824 158.856 L 121.647 159.800 120.945 158.600 C 120.020 157.021,120.000 156.997,120.000 157.489 M128.608 170.900 C 129.467 171.945,130.234 172.800,130.312 172.800 C 130.598 172.800,128.861 170.578,127.966 169.800 C 127.460 169.360,127.749 169.855,128.608 170.900 M265.375 176.900 L 264.200 178.200 265.500 177.025 C 266.215 176.379,266.800 175.794,266.800 175.725 C 266.800 175.416,266.470 175.688,265.375 176.900 M135.429 178.838 C 136.073 179.629,136.681 180.208,136.779 180.125 C 136.878 180.042,136.351 179.395,135.609 178.687 L 134.258 177.400 135.429 178.838 M83.105 181.083 C 83.602 181.179,84.322 181.175,84.705 181.075 C 85.087 180.975,84.680 180.896,83.800 180.901 C 82.920 180.905,82.607 180.987,83.105 181.083 M315.105 181.083 C 315.602 181.179,316.322 181.175,316.705 181.075 C 317.087 180.975,316.680 180.896,315.800 180.901 C 314.920 180.905,314.607 180.987,315.105 181.083 M75.000 182.800 C 74.496 183.017,74.422 183.144,74.800 183.144 C 75.130 183.144,75.760 182.989,76.200 182.800 C 76.704 182.583,76.778 182.456,76.400 182.456 C 76.070 182.456,75.440 182.611,75.000 182.800 M323.400 182.800 C 323.840 182.989,324.470 183.144,324.800 183.144 C 325.178 183.144,325.104 183.017,324.600 182.800 C 324.160 182.611,323.530 182.456,323.200 182.456 C 322.822 182.456,322.896 182.583,323.400 182.800 M335.233 186.121 C 335.325 186.188,335.940 186.558,336.600 186.945 L 337.800 187.647 336.856 186.824 C 336.336 186.371,335.721 186.000,335.489 186.000 C 335.257 186.000,335.142 186.054,335.233 186.121 M57.211 189.420 C 56.447 189.959,55.997 190.399,56.211 190.398 C 56.425 190.397,57.140 189.953,57.800 189.412 C 59.341 188.149,59.005 188.153,57.211 189.420 M343.784 190.889 C 344.453 191.488,345.159 191.983,345.354 191.989 C 345.549 191.995,345.189 191.608,344.554 191.128 C 342.781 189.789,342.438 189.683,343.784 190.889 M354.000 197.725 C 354.000 197.794,354.585 198.379,355.300 199.025 L 356.600 200.200 355.425 198.900 C 354.330 197.688,354.000 197.416,354.000 197.725 M26.614 223.435 C 26.241 224.004,26.005 224.538,26.089 224.622 C 26.173 224.707,26.558 224.241,26.944 223.588 C 27.806 222.128,27.548 222.009,26.614 223.435 M372.828 224.200 C 372.828 224.420,373.086 225.050,373.400 225.600 C 373.714 226.150,373.972 226.420,373.972 226.200 C 373.972 225.980,373.714 225.350,373.400 224.800 C 373.086 224.250,372.828 223.980,372.828 224.200 M21.800 240.000 C 21.648 240.691,21.607 241.341,21.709 241.442 C 21.811 241.544,22.009 241.053,22.150 240.350 C 22.483 238.683,22.160 238.360,21.800 240.000 M377.794 292.400 C 377.794 319.350,377.842 330.375,377.900 316.900 C 377.958 303.425,377.958 281.375,377.900 267.900 C 377.842 254.425,377.794 265.450,377.794 292.400 M21.394 292.200 C 21.394 318.820,21.441 329.769,21.500 316.531 C 21.558 303.293,21.558 281.513,21.500 268.131 C 21.442 254.749,21.394 265.580,21.394 292.200 M21.668 343.800 C 21.662 344.240,21.811 344.960,22.000 345.400 C 22.438 346.419,22.438 345.368,22.000 344.000 C 21.743 343.196,21.677 343.157,21.668 343.800 M375.115 353.810 C 374.992 354.245,374.769 354.960,374.620 355.400 C 374.471 355.840,374.642 355.694,375.000 355.076 C 375.358 354.458,375.581 353.742,375.495 353.486 C 375.410 353.230,375.239 353.376,375.115 353.810 M368.492 369.429 C 367.997 370.183,367.672 370.800,367.769 370.800 C 368.047 370.800,369.704 368.371,369.539 368.206 C 369.457 368.124,368.986 368.674,368.492 369.429 M37.337 378.718 C 38.318 379.993,39.440 381.298,39.830 381.618 C 40.221 381.938,39.496 380.895,38.219 379.300 C 35.456 375.847,34.790 375.408,37.337 378.718 M359.578 381.500 L 358.200 383.000 359.700 381.622 C 361.096 380.338,361.384 380.000,361.078 380.000 C 361.012 380.000,360.337 380.675,359.578 381.500 M43.235 385.300 C 43.328 385.355,44.033 385.940,44.802 386.600 L 46.200 387.800 45.025 386.500 C 44.379 385.785,43.674 385.200,43.458 385.200 C 43.243 385.200,43.143 385.245,43.235 385.300 " stroke="none" fill="#cccccc" fill-rule="evenodd"></path></g></svg>